<?xml version="1.0" encoding="utf-8"?>
<!-- Generator: Adobe Illustrator 25.4.1, SVG Export Plug-In . SVG Version: 6.00 Build 0)  -->
<svg version="1.1" id="Layer_1" xmlns="http://www.w3.org/2000/svg" xmlns:xlink="http://www.w3.org/1999/xlink" x="0px" y="0px"
	 viewBox="0 0 33 42" style="enable-background:new 0 0 33 42;" xml:space="preserve">
<style type="text/css">
	.st0{fill:none;}
	.st1{fill:#90CAF9;}
	.st2{fill:#E1F5FE;}
	.st3{fill:#1976D2;}
</style>
<rect x="196.5" y="-3" class="st0" width="48" height="48"/>
<polygon class="st1" points="236.5,42 204.5,42 204.5,0 226.5,0 236.5,10 "/>
<polygon class="st2" points="235,11 225.5,11 225.5,1.5 "/>
<g>
	<circle class="st3" cx="219.5" cy="27" r="4"/>
	<polygon class="st3" points="226.5,18 221.5,16 221.5,27 223.5,27 223.5,19.9 226.5,21 	"/>
</g>
<polygon class="st1" points="33,42 0,42 0,0 22.7,0 33,10 "/>
<polygon class="st2" points="31,11 21.5,11 21.5,1.5 "/>
<g>
	<ellipse transform="matrix(0.1323 -0.9912 0.9912 0.1323 -16.6335 39.6602)" class="st3" cx="14.3" cy="29.3" rx="5.9" ry="5.4"/>
	<polygon class="st3" points="25.4,17.3 19.2,13.5 17,29.7 19.6,30 21,19.6 24.8,21.7 	"/>
</g>
</svg>
